HIERARCHY
ROOT Hips
{
	OFFSET 0.00000 0.00000 0.00000
	CHANNELS 6 Xposition Yposition Zposition Zrotation Yrotation Xrotation 
	JOINT LHipJoint
	{
		OFFSET 0 0 0
		CHANNELS 3 Zrotation Yrotation Xrotation
		JOINT LeftUpLeg
		{
			OFFSET 1.17584 -1.63585 1.00361
			CHANNELS 3 Zrotation Yrotation Xrotation
			JOINT LeftLeg
			{
				OFFSET 2.23889 -6.15131 0.00000
				CHANNELS 3 Zrotation Yrotation Xrotation
				JOINT LeftFoot
				{
					OFFSET 2.65161 -7.28525 0.00000
					CHANNELS 3 Zrotation Yrotation Xrotation
					JOINT LeftToeBase
					{
						OFFSET 0.24898 -0.68407 1.57235
						CHANNELS 3 Zrotation Yrotation Xrotation
						End Site
						{
							OFFSET 0.00000 -0.00000 0.85838
						}
					}
				}
			}
		}
	}
	JOINT RHipJoint
	{
		OFFSET 0 0 0
		CHANNELS 3 Zrotation Yrotation Xrotation
		JOINT RightUpLeg
		{
			OFFSET -1.15592 -1.63585 1.00361
			CHANNELS 3 Zrotation Yrotation Xrotation
			JOINT RightLeg
			{
				OFFSET -2.34071 -6.43104 0.00000
				CHANNELS 3 Zrotation Yrotation Xrotation
				JOINT RightFoot
				{
					OFFSET -2.59113 -7.11908 0.00000
					CHANNELS 3 Zrotation Yrotation Xrotation
					JOINT RightToeBase
					{
						OFFSET -0.17867 -0.49089 1.70981
						CHANNELS 3 Zrotation Yrotation Xrotation
						End Site
						{
							OFFSET -0.00000 -0.00000 0.89861
						}
					}
				}
			}
		}
	}
	JOINT LowerBack
	{
		OFFSET 0 0 0
		CHANNELS 3 Zrotation Yrotation Xrotation
		JOINT Spine
		{
			OFFSET -0.02255 1.90764 -0.16605
			CHANNELS 3 Zrotation Yrotation Xrotation
			JOINT Spine1
			{
				OFFSET -0.00365 1.92150 -0.04898
				CHANNELS 3 Zrotation Yrotation Xrotation
				JOINT Neck
				{
					OFFSET 0 0 0
					CHANNELS 3 Zrotation Yrotation Xrotation
					JOINT Neck1
					{
						OFFSET 0.00372 1.59170 0.08694
						CHANNELS 3 Zrotation Yrotation Xrotation
						JOINT Head
						{
							OFFSET 0.12558 1.58643 -0.08078
							CHANNELS 3 Zrotation Yrotation Xrotation
							End Site
							{
								OFFSET 0.04211 1.60835 -0.03803
							}
						}
					}
				}
				JOINT LeftShoulder
				{
					OFFSET 0 0 0
					CHANNELS 3 Zrotation Yrotation Xrotation
					JOINT LeftArm
					{
						OFFSET 3.69324 0.96316 0.19077
						CHANNELS 3 Zrotation Yrotation Xrotation
						JOINT LeftForeArm
						{
							OFFSET 4.87796 -0.00000 -0.00000
							CHANNELS 3 Zrotation Yrotation Xrotation
							JOINT LeftHand
							{
								OFFSET 3.23169 -0.00000 0.00000
								CHANNELS 3 Zrotation Yrotation Xrotation
								JOINT LeftFingerBase
								{
									OFFSET 0 0 0
									CHANNELS 3 Zrotation Yrotation Xrotation
									JOINT LeftHandIndex1
									{
										OFFSET 0.73132 -0.00000 0.00000
										CHANNELS 3 Zrotation Yrotation Xrotation
										End Site
										{
											OFFSET 0.58961 -0.00000 0.00000
										}
									}
								}
								JOINT LThumb
								{
									OFFSET 0 0 0
									CHANNELS 3 Zrotation Yrotation Xrotation
									End Site
									{
										OFFSET 0.59861 -0.00000 0.59861
									}
								}
							}
						}
					}
				}
				JOINT RightShoulder
				{
					OFFSET 0 0 0
					CHANNELS 3 Zrotation Yrotation Xrotation
					JOINT RightArm
					{
						OFFSET -3.66103 0.75145 0.08281
						CHANNELS 3 Zrotation Yrotation Xrotation
						JOINT RightForeArm
						{
							OFFSET -4.91430 -0.00000 0.00000
							CHANNELS 3 Zrotation Yrotation Xrotation
							JOINT RightHand
							{
								OFFSET -3.29093 -0.00000 0.00000
								CHANNELS 3 Zrotation Yrotation Xrotation
								JOINT RightFingerBase
								{
									OFFSET 0 0 0
									CHANNELS 3 Zrotation Yrotation Xrotation
									JOINT RightHandIndex1
									{
										OFFSET -0.54512 -0.00000 0.00000
										CHANNELS 3 Zrotation Yrotation Xrotation
										End Site
										{
											OFFSET -0.43949 -0.00000 0.00000
										}
									}
								}
								JOINT RThumb
								{
									OFFSET 0 0 0
									CHANNELS 3 Zrotation Yrotation Xrotation
									End Site
									{
										OFFSET -0.44620 -0.00000 0.44620
									}
								}
							}
						}
					}
				}
			}
		}
	}
}
MOTION
Frames: 13
Frame Time: 0.0238095
0.00 0.00 0.00 0 0 0 0 0 0 -21 0 0 0 0 0 0 0 0 0 0 0 0 0 0 21 0 0 0 0 0 0 0 0 0 0 0 0 0 0 0 0 0 0 0 0 0 0 -16 0 0 21 0 0 11 0 0 0 -8 0 0 0 0 0 0 0 0 0 0 0 0 0 0 0 0 0 0 0 0 8 0 0 0 0 0 0 0 0 0 0 0 0 0 0 0 0 0
0.00 0.00 0.00 -70.3952 -75.8165 -108.9710 0.0000 0.0000 0.0000 -20.3485 2.0280 -33.1436 11.0290 17.9493 62.8758 -0.4137 -11.4167 5.8666 0.5748 -4.8553 -13.4963 0.0000 0.0000 0.0000 7.0311 0.2306 13.6156 -6.3425 -14.7522 46.3413 -0.0402 0.1516 3.8457 -1.0644 6.5590 -18.4153 5.5507 5.5349 -3.7339 -3.7710 6.9944 -4.5263 -6.7856 3.2274 -1.4708 2.2763 4.4920 -10.1528 -3.1333 5.7715 -11.9340 -1.2831 2.7921 -1.9115 0.0000 0.0000 0.0000 59.5859 -35.2626 -75.9250 31.8712 -42.4442 -12.6538 -0.0000 -0.0000 5.8590 79.7789 -39.0248 -74.0204 -7.1250 0.0000 -0.0000 22.2429 -44.4649 -32.2805 0.0000 0.0000 0.0000 -25.0181 51.9168 -58.6641 -29.8211 40.7396 -11.2927 0.0000 -0.0000 -26.6606 -50.9509 -33.4436 34.1915 7.1250 -0.0000 -0.0000 -35.7026 -73.7578 25.0810
0.00 0.00 0.00 -167.1260 -27.1889 -11.8044 0.0000 0.0000 0.0000 -11.6007 15.4132 -32.3595 6.3975 14.8028 46.5568 -0.4450 -11.7624 3.3374 1.7433 -8.3096 -23.6583 0.0000 0.0000 0.0000 2.4010 6.1219 9.2944 -7.3021 -15.5811 50.0078 0.1800 7.9727 5.8065 -0.1663 -2.6270 7.2419 2.6994 2.0660 -3.9276 -5.8322 2.5757 -3.1246 -7.5144 1.1739 -0.6379 -0.6473 0.1158 -10.8856 -2.7165 0.0625 -5.8145 -0.7258 -0.0590 -0.0094 0.0000 -0.0000 0.0000 46.0812 -47.5826 -67.6372 57.2840 -55.5417 -32.0912 -0.0000 0.0000 -21.3330 84.9727 -38.4035 -81.9399 -7.1250 0.0000 -0.0000 26.1660 -49.5719 -37.8695 0.0000 -0.0000 0.0000 -36.5843 49.5259 -72.3380 -27.2311 38.3987 -9.6423 0.0000 -0.0000 -22.8166 -80.1811 -39.8096 74.8733 7.1250 -0.0000 -0.0000 -133.7280 68.6767 -151.5626
0.00 0.00 0.00 -169.4460 -9.6266 -7.7491 0.0000 0.0000 0.0000 -4.5021 12.5521 -18.9608 2.4934 9.8260 28.4149 0.0967 1.9656 -6.9438 2.2460 -9.3607 -26.9302 0.0000 0.0000 0.0000 -6.5647 8.1791 2.4500 -6.7303 -15.1005 47.8466 0.2680 10.3277 8.9387 -0.2948 -3.4912 9.6494 0.7517 -0.4506 -3.3788 -4.7080 -0.5910 -2.5751 -5.3059 -0.3219 -0.8140 -0.1894 1.1570 -10.0219 -4.1350 1.6120 -2.8021 -1.1986 0.7572 0.8423 0.0000 0.0000 0.0000 28.1557 -50.2473 -57.8355 83.7879 -59.8537 -54.6228 -0.0000 0.0000 -30.6402 87.2628 -39.8984 -85.7372 -7.1250 0.0000 -0.0000 26.6532 -52.6950 -38.1742 0.0000 0.0000 0.0000 -28.7271 45.8928 -65.9230 -47.0826 51.7489 -23.8632 0.0000 -0.0000 -17.2171 -99.5614 34.6311 -106.5102 7.1250 -0.0000 -0.0000 -151.7352 47.9581 -177.7686
0.00 0.00 0.00 -169.7780 -6.2714 -6.0618 0.0000 0.0000 0.0000 -1.0823 3.0853 0.5413 0.4297 4.2069 11.6595 -1.1930 21.3299 -18.7324 0.2985 -3.5129 -9.7100 0.0000 0.0000 0.0000 -12.3221 11.7421 -7.6233 -6.7597 -15.1261 47.9594 0.1645 9.8036 10.7050 -0.3208 -3.6410 10.0687 -0.6040 -1.2130 -3.1678 -4.4354 -1.5474 -2.5722 -4.2673 -0.7662 -0.9758 1.3773 1.5922 -9.6750 -3.2954 2.0646 0.0951 -1.1903 0.9464 1.7393 -0.0000 0.0000 0.0000 20.2535 -49.7723 -52.2289 95.4127 -59.8890 -64.6858 -0.0000 0.0000 -33.1227 89.4154 -40.5617 -89.1010 -7.1250 0.0000 -0.0000 27.7036 -55.1857 -39.3005 -0.0000 0.0000 0.0000 -23.4363 46.3284 -61.4588 -59.0408 56.0489 -33.5442 0.0000 -0.0000 -14.8353 -104.9379 32.6245 -116.3284 7.1250 -0.0000 -0.0000 -155.1652 40.4586 177.0059
0.00 0.00 0.00 -171.1920 -2.2829 -3.5975 0.0000 0.0000 0.0000 4.4621 15.2142 14.9803 0.0000 0.0000 0.0000 -0.1338 6.5264 -3.2928 1.7550 -8.3360 -23.7393 0.0000 0.0000 0.0000 -17.8037 4.4211 -29.2212 -5.5970 -14.0261 43.3423 0.0004 0.9257 1.2419 -0.0125 -0.7215 1.9827 -1.3416 -1.6775 -1.1453 -4.3194 -2.2236 -2.6498 -3.6804 -1.0904 -2.2036 1.6220 1.3968 -8.3348 0.1843 1.6688 -1.3679 -0.1594 0.8129 0.9763 0.0000 0.0000 0.0000 12.1539 -51.0788 -44.8173 108.4403 -58.6753 -75.8987 -0.0000 0.0000 -34.5499 94.9125 41.5635 97.3816 -7.1250 0.0000 -0.0000 31.3117 -61.0199 -43.0990 0.0000 0.0000 0.0000 -12.4505 44.4726 -52.8262 -82.2305 59.7707 -53.2766 0.0000 -0.0000 -12.1067 -109.1553 31.7067 -123.4617 7.1250 -0.0000 -0.0000 -157.9033 34.7325 174.0544
0.00 0.00 0.00 -171.6420 1.4585 -2.4296 0.0000 0.0000 0.0000 6.1857 18.7556 19.1093 0.0000 -0.0000 -0.0000 0.4777 1.6270 12.5938 1.5499 -7.8579 -22.2834 0.0000 0.0000 0.0000 -19.8869 1.5829 -36.6914 -4.8378 -13.1987 40.1170 0.0586 -4.4609 -0.3197 -0.1950 -2.8434 7.8431 -2.6124 -1.9748 0.1415 -4.1565 -2.6594 -2.3126 -2.7547 -1.2721 -2.5369 1.0534 0.8492 -9.0717 1.0452 0.9680 -1.3774 0.1820 0.4811 1.0872 -0.0000 -0.0000 0.0000 8.6841 -50.7563 -39.3598 113.2785 -57.8500 -80.0143 -0.0000 0.0000 -36.4798 99.0399 41.7682 103.4331 -7.1250 0.0000 -0.0000 35.2392 -65.0527 -47.1722 -0.0000 -0.0000 0.0000 -7.3875 42.5315 -50.6894 -94.7132 59.9159 -64.0806 0.0000 -0.0000 -10.3040 -109.1564 30.6367 -124.2819 7.1250 -0.0000 -0.0000 -157.4098 33.9784 173.4537
0.00 0.00 0.00 -172.8860 6.0445 -1.6739 0.0000 0.0000 0.0000 8.5767 20.0323 22.4772 0.0000 0.0000 0.0000 2.6247 0.9708 30.4281 1.7160 -8.2476 -23.4686 0.0000 0.0000 0.0000 -21.8976 -0.2657 -40.4772 -4.5946 -12.9121 39.0405 0.1037 -7.1666 2.0122 -0.6272 -5.0675 14.1012 -1.4039 -2.0976 1.3620 -4.5016 -2.8460 -1.9478 -3.7478 -1.3939 -2.9318 0.9400 -0.4348 -9.9175 1.7285 -0.7458 -0.7132 0.3507 -0.3402 1.4542 0.0000 0.0000 0.0000 7.0568 -52.9606 -34.7111 115.1899 -57.4611 -81.6291 -0.0000 0.0000 -36.8355 102.7927 41.9182 108.7716 -7.1250 0.0000 -0.0000 39.5712 -68.5371 -51.4329 0.0000 0.0000 0.0000 -2.4494 39.3397 -49.1453 -104.4088 59.2008 -72.4449 0.0000 -0.0000 -8.3103 -109.4613 29.7739 -125.4352 7.1250 -0.0000 -0.0000 -157.2523 32.9688 172.7961
0.00 0.00 0.00 -174.7330 16.4436 -0.6922 0.0000 0.0000 0.0000 13.9363 21.0675 30.8059 0.0000 0.0000 0.0000 5.9281 9.6989 44.8759 1.9195 -8.6963 -24.8498 0.0000 0.0000 0.0000 -29.1256 4.0146 -36.5807 -3.6491 -11.6782 34.6030 0.1697 -14.7579 8.3209 -1.3549 -7.3683 20.8111 -0.0126 -3.0645 0.3659 -3.4154 -4.0067 -0.5885 -3.4436 -1.9681 -1.0531 -1.9891 -1.8230 -15.1743 4.3136 -2.3496 2.2056 1.6227 -0.9801 3.5267 0.0000 0.0000 0.0000 -4.6736 -52.8008 -18.2164 119.9592 -56.3208 -85.6249 -0.0000 0.0000 -37.2323 97.7889 40.9364 101.7919 -7.1250 0.0000 -0.0000 35.1309 -63.7346 -47.5187 0.0000 0.0000 0.0000 2.6190 34.4488 -46.4478 -119.5254 56.4351 -85.2637 0.0000 -0.0000 -2.7048 -111.1065 28.7252 -128.7694 7.1250 -0.0000 -0.0000 -157.9992 30.1020 171.4209
0.00 0.00 0.00 -176.7530 24.0866 -0.8072 0.0000 0.0000 0.0000 17.9692 18.2093 25.8289 0.7497 5.5304 15.4277 4.2456 14.1161 37.4807 1.8585 -8.5650 -24.4438 0.0000 0.0000 0.0000 -30.0234 4.1081 -32.4043 -3.9256 -12.0608 35.9474 -0.6243 -15.8891 16.8265 -0.7419 -5.5022 15.3468 1.8775 -3.9756 -2.0658 -1.9452 -5.2536 0.8434 -3.2125 -2.5606 1.6688 -5.4667 -1.9581 -15.3818 4.3442 -1.8898 3.7144 2.0756 -0.7851 3.6666 -0.0000 -0.0000 0.0000 -11.7068 -41.1163 -10.1888 130.6987 -52.7098 -94.3827 -0.0000 0.0000 -43.0359 78.4886 -34.4303 -70.1908 -7.1250 0.0000 -0.0000 24.1286 -39.8481 -35.3157 -0.0000 -0.0000 0.0000 0.5633 36.4400 -51.9303 -123.2161 55.3902 -88.3208 0.0000 0.0000 2.5506 -102.3483 31.7577 -112.5841 7.1250 -0.0000 -0.0000 -152.3814 43.3152 178.7486
0.00 0.00 0.00 -176.8120 32.9156 -2.1044 0.0000 0.0000 0.0000 22.9645 14.6103 15.5247 3.9174 12.0497 35.9081 1.7063 12.4743 23.7116 2.2747 -9.4162 -27.1060 0.0000 0.0000 0.0000 -30.3420 3.3421 -25.3643 -4.9518 -13.3293 40.6139 -2.0503 -11.2085 25.7819 -0.0466 -1.3935 3.8322 -0.0436 -4.0791 -1.0255 -2.2286 -5.3050 0.9751 -2.3668 -2.5913 1.3657 -4.6695 -2.3594 -12.6178 3.9022 -2.7244 5.9252 1.7611 -1.2337 3.9310 -0.0000 0.0000 0.0000 -24.2554 -34.6971 0.1708 135.5048 -50.5188 -98.1515 -0.0000 0.0000 -35.9260 63.4333 -26.5049 -41.7485 -7.1250 0.0000 -0.0000 18.5545 -16.0264 -24.0317 -0.0000 0.0000 0.0000 5.3693 37.4465 -50.3815 -127.1277 54.0903 -91.5154 0.0000 0.0000 4.3006 -85.2481 -31.6406 80.9957 7.1250 -0.0000 -0.0000 -125.3172 64.0858 -150.6656
0.00 0.00 0.00 -181.2990 46.3019 -3.7874 0.0000 0.0000 0.0000 28.9602 6.6932 0.6316 7.9153 16.0566 52.2570 0.0924 11.4660 9.3233 1.7932 -8.4214 -24.0016 0.0000 0.0000 0.0000 -23.8737 -1.3689 -16.2750 -6.7797 -15.1435 48.0361 -3.3504 -5.9683 33.4532 -0.0026 0.3285 -0.9027 -0.8743 -3.4044 -2.6477 -1.7268 -4.3921 0.9493 -1.4855 -2.1551 2.3865 -1.6165 -2.4106 -11.6610 4.0520 -3.4208 9.0658 1.2640 -1.4577 4.7246 0.0000 -0.0000 0.0000 -37.0905 -31.4428 0.7536 136.6181 -49.9507 -99.0074 -0.0000 0.0000 -17.0486 75.7697 -32.8996 -64.9725 -7.1250 0.0000 -0.0000 23.1261 -35.5186 -33.6519 0.0000 -0.0000 0.0000 19.4675 33.5049 -32.6154 -132.7092 51.8426 -95.9731 0.0000 0.0000 2.5003 -87.2696 -30.2293 84.5888 7.1250 -0.0000 -0.0000 -127.4371 61.9892 -154.6271
0.00 0.00 0.00 -184.7690 63.4014 -4.8721 0.0000 0.0000 0.0000 31.1826 1.1161 -21.8798 12.8705 18.7349 68.7229 -0.5480 13.2773 -7.9078 0.5774 -4.8657 -13.5260 0.0000 0.0000 0.0000 -17.2767 -12.2850 -8.3394 -10.4802 -17.6712 61.0816 -4.3800 -3.4502 38.9826 -0.0354 -1.2152 3.3411 -3.6493 -0.4759 -1.6591 -2.0381 -0.5512 0.1777 -0.0596 -0.2981 1.1270 0.5830 -1.9403 -10.1194 5.9243 -3.2841 8.4082 1.5106 -1.2288 4.2678 0.0000 0.0000 0.0000 -37.7171 -30.7973 -20.0694 136.4887 -50.0179 -98.9083 -0.0000 0.0000 -13.1165 75.3933 -29.6125 -62.1928 -7.1250 0.0000 -0.0000 24.2840 -31.9943 -35.2933 0.0000 0.0000 0.0000 41.6850 25.3991 -7.9201 -135.4206 50.5608 -98.0865 0.0000 0.0000 4.1272 -92.8392 28.9061 -95.8579 7.1250 -0.0000 -0.0000 -137.4183 55.2318 -167.6753
